<?xml version="1.0" standalone="no"?>
<!DOCTYPE svg PUBLIC "-//W3C//DTD SVG 20010904//EN"
 "http://www.w3.org/TR/2001/REC-SVG-20010904/DTD/svg10.dtd">
<svg version="1.0" xmlns="http://www.w3.org/2000/svg"
 width="450.000000pt" height="451.000000pt" viewBox="0 0 450.000000 451.000000"
 preserveAspectRatio="xMidYMid meet">

<g transform="translate(0.000000,451.000000) scale(0.100000,-0.100000)"
fill="#000000" stroke="none">
<path d="M468 4108 c77 -129 111 -216 139 -355 15 -75 17 -149 18 -518 l0
-430 -215 0 c-236 0 -241 1 -327 71 l-33 27 0 -60 c0 -184 80 -330 215 -394
58 -28 66 -29 208 -29 l147 0 0 -196 0 -196 -202 4 c-221 4 -246 9 -320 68
-20 17 -40 30 -44 30 -4 0 -4 -39 -2 -87 12 -190 98 -321 246 -375 36 -13 81
-17 190 -18 l143 0 -6 -403 c-6 -468 -10 -549 -32 -637 -20 -86 -81 -216 -123
-263 l-33 -38 859 4 c928 4 941 5 1195 62 262 59 528 172 709 301 115 82 274
240 353 351 108 152 203 356 249 533 l23 90 230 0 c127 0 247 -5 267 -10 20
-6 60 -29 89 -52 l52 -41 -5 104 c-7 138 -33 204 -108 280 -75 75 -129 95
-285 103 -66 3 -132 6 -147 6 l-28 0 0 191 0 191 208 -4 c229 -4 260 -11 331
-77 l33 -32 -4 108 c-3 91 -8 117 -30 165 -35 76 -107 151 -177 185 -53 27
-64 28 -239 33 l-184 5 -44 135 c-219 667 -722 1056 -1524 1178 -88 13 -242
16 -959 19 l-853 4 20 -33z m1467 -168 c255 -13 415 -50 590 -138 233 -116
422 -323 526 -576 43 -103 103 -303 114 -378 l7 -48 -981 0 -981 0 0 575 0
575 273 0 c149 0 353 -5 452 -10z m1275 -1715 l0 -195 -1000 0 -1000 0 0 195
0 195 1000 0 1000 0 0 -195z m-40 -586 c0 -5 -14 -65 -31 -132 -72 -287 -178
-485 -346 -648 -203 -197 -419 -293 -753 -336 -70 -8 -255 -16 -472 -20 l-358
-6 0 577 0 576 980 0 c683 0 980 -3 980 -11z"/>
</g>
</svg>
